<svg viewBox="0 0 182.36 202.92" xmlns="http://www.w3.org/2000/svg" xmlns:xlink="http://www.w3.org/1999/xlink" id="Layer_2" overflow="hidden"><defs><clipPath id="clippath"><path d="M175.76 114.72C174.82 115.5 173.82 116.2 172.75 116.79 169.61 118.51 166.04 119.09 162.51 118.68 159 118.28 155.63 117.01 152.48 115.45 149.69 114.07 147.05 112.42 144.45 110.72 141.35 108.63 138.16 106.69 134.85 104.95 134.53 104.8 134.2 104.6 133.86 104.49 133.8 104.47 133.69 104.43 133.64 104.48 133.63 104.49 133.62 104.51 133.62 104.53 133.59 105.29 133.64 106.05 133.64 106.81 133.64 108.56 133.58 110.31 133.54 112.05 133.54 112.27 133.53 112.48 133.53 112.7 133.51 115.32 133.49 117.95 133.48 120.58 133.45 125.88 133.45 131.19 133.45 136.5 133.46 141.81 133.48 147.12 133.49 152.43 133.5 157.74 133.51 163.05 133.49 168.36 133.47 173.67 133.43 178.98 133.36 184.29 133.34 192.22 127.7 200.85 119.87 202.59 118.67 202.86 117.41 202.97 116.12 202.88 106.47 202.25 98.72 193.32 98.48 183.71 98.13 174.73 98.3 165.66 98.25 156.72 98.21 155.03 98.31 153.35 98.17 151.7 98.09 151.14 97.92 150.75 97.61 150.62L97.52 150.59C96.83 150.38 95.51 151.51 94.77 152.04 85.02 159.42 75.02 158.41 67.58 149.57 65.95 147.37 64.4 146.89 62.22 148.65 58 151.45 52.45 151.47 47.5 151 42.76 150.35 39.63 147.11 36.93 143.56 35.23 141 32.43 141.69 29.98 142.58 17.99 146.21 5.17 140.23 1.22 128.53 0.23 125.7 0 122.42 0 119.4-0.02 113.38 0.03 107.39 0.22 101.4 1.66 64.31 9.09 15.49 50.08 2.88 70.89-3.6 94.57 1.11 111.64 14.46 119.07 20.27 125.21 27.67 129.37 36.43 133.62 46 139.38 55.06 146.27 62.41 150.18 66.65 154.46 70.52 159 74.07 163.26 77.45 167.98 80.45 172.57 83.49 183.74 90.12 186.07 106.21 175.76 114.72Z" fill="#FFC83D"/></clipPath></defs><g id="Layer_1-2"><g><path d="M175.76 114.72C174.82 115.5 173.82 116.2 172.75 116.79 169.61 118.51 166.04 119.09 162.51 118.68 159 118.28 155.63 117.01 152.48 115.45 149.69 114.07 147.05 112.42 144.45 110.72 141.35 108.63 138.16 106.69 134.85 104.95 134.53 104.8 134.2 104.6 133.86 104.49 133.8 104.47 133.69 104.43 133.64 104.48 133.63 104.49 133.62 104.51 133.62 104.53 133.59 105.29 133.64 106.05 133.64 106.81 133.64 108.56 133.58 110.31 133.54 112.05 133.54 112.27 133.53 112.48 133.53 112.7 133.51 115.32 133.49 117.95 133.48 120.58 133.45 125.88 133.45 131.19 133.45 136.5 133.46 141.81 133.48 147.12 133.49 152.43 133.5 157.74 133.51 163.05 133.49 168.36 133.47 173.67 133.43 178.98 133.36 184.29 133.34 192.22 127.7 200.85 119.87 202.59 118.67 202.86 117.41 202.97 116.12 202.88 106.47 202.25 98.72 193.32 98.48 183.71 98.13 174.73 98.3 165.66 98.25 156.72 98.21 155.03 98.31 153.35 98.17 151.7 98.09 151.14 97.92 150.75 97.61 150.62L97.52 150.59C96.83 150.38 95.51 151.51 94.77 152.04 85.02 159.42 75.02 158.41 67.58 149.57 65.95 147.37 64.4 146.89 62.22 148.65 58 151.45 52.45 151.47 47.5 151 42.76 150.35 39.63 147.11 36.93 143.56 35.23 141 32.43 141.69 29.98 142.58 17.99 146.21 5.17 140.23 1.22 128.53 0.23 125.7 0 122.42 0 119.4-0.02 113.38 0.03 107.39 0.22 101.4 1.66 64.31 9.09 15.49 50.08 2.88 70.89-3.6 94.57 1.11 111.64 14.46 119.07 20.27 125.21 27.67 129.37 36.43 133.62 46 139.38 55.06 146.27 62.41 150.18 66.65 154.46 70.52 159 74.07 163.26 77.45 167.98 80.45 172.57 83.49 183.74 90.12 186.07 106.21 175.76 114.72Z" fill="#FFC83D"/><g clip-path="url(#clippath)"><path d="M133.64 105.25 133.64 106.97C133.64 140.02 133.63 173.06 133.63 206.1L126.36 206.1 126.36 205.92C125.78 206.29 125.01 206.33 124.31 206.3 121.77 206.19 119.24 205.76 116.8 205.03 117.96 204.4 118.97 203.57 119.86 202.6 120.78 201.59 121.56 200.44 122.19 199.23 123.43 196.86 124.14 194.25 124.73 191.63 126.34 184.82 126.47 177.68 126.45 170.72 126.41 156.77 126.35 142.82 126.35 128.88 126.35 121.02 126.34 113.16 126.34 105.3 126.34 103.72 126.39 101.99 127.41 100.78 128.68 99.26 131.36 99.28 132.61 100.82 133.43 101.81 133.6 103.15 133.63 104.46 133.64 104.73 133.64 104.99 133.64 105.25Z" fill="#D67D00"/><path d="M29.21 113.36 29.21 113.36C31.75 113.36 33.81 115.42 33.81 117.96L33.81 143.94 24.62 143.94 24.62 117.96C24.62 115.42 26.68 113.36 29.22 113.36Z" fill="#D67D00"/><path d="M61.28 126.89 61.28 126.89C63.29 126.89 64.92 128.52 64.92 130.53L64.92 151.59 57.64 151.59 57.64 130.53C57.64 128.52 59.27 126.89 61.28 126.89Z" fill="#D67D00"/><path d="M94.54 120.32 94.54 120.32C96.55 120.32 98.18 121.95 98.18 123.96L98.18 155.22 90.9 155.22 90.9 123.96C90.9 121.95 92.53 120.32 94.54 120.32Z" fill="#D67D00"/></g></g></g></svg>