<svg width="818" height="620" viewBox="0 0 818 620" xmlns="http://www.w3.org/2000/svg" xmlns:xlink="http://www.w3.org/1999/xlink" fill="none" overflow="hidden"><style>
.MsftOfcThm_Background1_Fill_v2 {
 fill:#FFFFFF; 
}
</style>
<defs><clipPath id="clip0_28_4"><rect x="0" y="0" width="818" height="620" fill="#FFFFFF"/></clipPath></defs><g clip-path="url(#clip0_28_4)"><path d="M601.561 163.284 513.145 10.1795C509.507 3.88159 502.784 0 495.508 0L318.688 0C313.263 0 308.25 2.89191 305.55 7.58323L217.146 160.687C213.508 166.985 213.508 174.749 217.146 181.059L309.934 341.747 314.253 341.747C309.162 325.655 306.823 308.933 308.044 291.44 309.946 264.308 321.4 243.499 347.624 232.985 351.944 231.25 352.162 229.965 350.465 226.07 346.275 216.443 342.328 206.675 338.832 196.766 331.607 176.278 323.56 155.919 323.676 133.696 323.74 119.918 328.933 108.504 342.174 103.042 366.213 93.1195 394.069 97.0782 406.487 124.982 413.416 140.547 415.704 156.96 416.116 173.785 416.308 181.753 416.784 189.709 417.247 200.082 424.458 189.594 429.78 181.432 435.527 173.579 444.152 161.806 453.665 150.791 466.456 143.336 491.317 128.825 521.565 146.498 522.696 175.314 523.519 196.29 515.292 213.359 502.925 229.116 491.356 243.846 476.598 254.977 459.051 266.017 467.767 267.932 472.857 271.981 477.087 277.932 483.18 286.518 476.161 298.291 481.444 304.448 487.268 311.234 496.472 315.308 500.277 324.575 502.63 330.282 503.812 336.053 503.889 341.734L507.283 341.734 601.574 178.45C604.287 173.759 604.287 167.975 601.574 163.271L601.561 163.284Z" class="MsftOfcThm_Background1_Fill_v2" fill="#FFFFFF"/><path d="M394.547 334.215C394.752 322.416 394.701 322.416 407.363 325.822 403.044 331.773 400.498 336.953 399.637 341.747L406.412 341.747C407.209 337.3 410.358 333.251 415.873 329.845 422.519 325.745 429.911 323.714 437.508 322.069 440.657 321.388 446.673 322.185 445.658 316.979 444.501 311.041 438.858 314.255 435.58 315.064 426.337 317.326 417.043 318.008 407.646 317.545 402.658 317.301 396.783 317.172 395.652 310.81 394.675 305.309 396.719 300.553 401.784 297.032 419.447 284.757 418.213 267.611 399.213 257.946 391.628 254.09 383.478 252.252 375.174 250.992 372.77 250.62 370.096 250.877 369.659 253.884 369.222 256.93 371.793 257.83 374.171 258.164 382.193 259.295 389.996 261.133 397.182 265.015 406.45 270.028 408.983 276.865 404.625 284.757 400.756 291.775 394.804 292.752 385.548 287.777 378.992 284.256 373.619 279.23 368.168 274.218 365.122 271.403 362.255 263.884 357.601 268.1 352.575 272.637 360.044 275.786 362.705 278.819 373.49 291.094 382.103 304.473 385.998 320.514 387.708 327.544 388.196 334.626 386.988 341.76L394.032 341.76C394.289 339.253 394.482 336.747 394.534 334.228L394.547 334.215Z" class="MsftOfcThm_Background1_Fill_v2" fill="#FFFFFF"/><path d="M206.783 420.561C217.363 420.561 222.659 426.113 222.659 437.218 222.659 448.323 217.298 453.207 206.59 453.207 195.882 453.207 189.969 447.77 189.969 436.884 189.969 432.167 191.473 428.272 194.494 425.188 197.515 422.103 201.603 420.561 206.77 420.561L206.783 420.561ZM206.41 458.927C215.769 458.927 220.448 466.368 220.448 481.252 220.448 496.136 218.353 511.367 214.175 526.25 212.324 532.857 209.611 536.16 206.05 536.16 202.978 536.16 200.394 533.255 198.299 527.433 193.62 514.567 191.28 499.67 191.28 482.769 191.28 466.87 196.332 458.927 206.423 458.927L206.41 458.927Z" class="MsftOfcThm_Background1_Fill_v2" fill="#FFFFFF"/><path d="M285.817 518.501C279.904 530.274 271.715 536.174 261.251 536.174 250.787 536.174 243.036 531.739 237.251 522.884 232.328 515.48 229.859 506.843 229.859 496.972 229.859 487.101 232.07 478.798 236.505 471.729 241.917 463.092 249.617 458.773 259.593 458.773 267.961 458.773 274.608 462.308 279.531 469.377 278.168 456.588 277.5 447.116 277.5 440.933 277.5 427.361 282.912 420.574 293.749 420.574 304.585 420.574 310.37 428.414 310.37 444.095 310.37 455.521 309.38 468.85 307.413 484.081 306.179 492.936 304.341 506.2 301.873 523.899 300.767 532.073 298.299 536.161 294.481 536.161 291.409 536.161 289.121 533.77 287.655 528.989 287.527 528.436 287.167 526.598 286.55 523.488L285.817 518.488 285.817 518.501ZM283.04 496.124C281.935 489.954 280.881 482.603 279.904 474.081 279.287 476.433 277.937 477.616 275.842 477.616 274.852 477.616 273.438 477.23 271.599 476.433 269.131 475.649 267.229 475.251 265.879 475.251 262.061 475.251 259.053 476.626 256.829 479.376 254.618 482.127 253.5 485.289 253.5 488.888 253.5 493.373 254.734 497.075 257.189 499.993 259.901 503.244 263.591 504.877 268.27 504.877 273.566 504.877 278.49 501.959 283.04 496.124Z" class="MsftOfcThm_Background1_Fill_v2" fill="#FFFFFF"/><path d="M376.11 518.501C370.197 530.274 362.008 536.174 351.544 536.174 341.08 536.174 333.329 531.739 327.544 522.884 322.62 515.48 320.152 506.843 320.152 496.972 320.152 487.101 322.363 478.798 326.798 471.729 332.21 463.092 339.91 458.773 349.886 458.773 358.254 458.773 364.9 462.308 369.824 469.377 368.461 456.588 367.793 447.116 367.793 440.933 367.793 427.361 373.205 420.574 384.042 420.574 394.878 420.574 400.663 428.414 400.663 444.095 400.663 455.521 399.673 468.85 397.706 484.081 396.472 492.936 394.634 506.2 392.166 523.899 391.06 532.073 388.592 536.161 384.774 536.161 381.702 536.161 379.414 533.77 377.948 528.989 377.82 528.436 377.46 526.598 376.843 523.488L376.11 518.488 376.11 518.501ZM373.346 496.124C372.241 489.954 371.187 482.603 370.21 474.081 369.593 476.433 368.243 477.616 366.147 477.616 365.158 477.616 363.744 477.23 361.905 476.433 359.437 475.649 357.535 475.251 356.185 475.251 352.367 475.251 349.359 476.626 347.135 479.376 344.924 482.127 343.805 485.289 343.805 488.888 343.805 493.373 345.04 497.075 347.495 499.993 350.207 503.244 353.897 504.877 358.576 504.877 363.872 504.877 368.796 501.959 373.346 496.124Z" class="MsftOfcThm_Background1_Fill_v2" fill="#FFFFFF"/><path d="M426.9 420.561C437.48 420.561 442.776 426.113 442.776 437.218 442.776 448.323 437.416 453.207 426.707 453.207 415.999 453.207 410.086 447.77 410.086 436.884 410.086 432.167 411.59 428.272 414.611 425.188 417.632 422.103 421.72 420.561 426.887 420.561L426.9 420.561ZM426.527 458.927C435.886 458.927 440.565 466.368 440.565 481.252 440.565 496.136 438.47 511.367 434.292 526.25 432.441 532.857 429.728 536.16 426.167 536.16 423.095 536.16 420.511 533.255 418.416 527.433 413.737 514.567 411.397 499.67 411.397 482.769 411.397 466.87 416.449 458.927 426.54 458.927L426.527 458.927Z" class="MsftOfcThm_Background1_Fill_v2" fill="#FFFFFF"/><path d="M498.362 508.577 492.822 491.92C491.099 486.65 489.068 481.818 486.728 477.448 485.623 475.43 484.569 474.414 483.592 474.414 480.764 474.414 478.668 479.298 477.318 489.054 476.573 495.108 476.213 501.007 476.213 506.727 476.213 509.194 476.277 511.726 476.393 514.297 476.637 519.567 476.766 522.883 476.766 524.219 476.766 532.188 473.012 536.173 465.505 536.173 460.581 536.173 457.072 534.206 454.976 530.286 452.148 525.132 450.734 516.263 450.734 503.693 450.734 493.707 452.328 482.409 455.542 469.787 458.743 457.166 462.741 446.318 467.549 437.231 473.462 426.01 479.915 420.406 486.934 420.406 496.781 420.406 505.342 430.894 512.605 451.87 519.624 430.894 528.173 420.406 538.277 420.406 546.157 420.406 553.356 427.077 559.886 440.431 563.832 448.503 567.085 458.13 569.668 469.286 572.252 480.455 573.551 490.455 573.551 499.323 573.551 508.192 572.008 515.364 568.936 522.202 564.745 531.52 558.78 536.173 551.029 536.173 543.277 536.173 539.884 530.402 539.768 518.834 539.524 505.377 537.917 493.488 534.96 483.167 533.366 477.782 531.759 475.096 530.165 475.096 528.931 475.096 527.89 476.227 527.029 478.476L516.873 506.855C514.662 513.166 511.397 516.315 507.091 516.315 503.028 516.315 500.136 513.731 498.413 508.577L498.362 508.577Z" class="MsftOfcThm_Background1_Fill_v2" fill="#FFFFFF"/><path d="M640.179 520.685C632.543 531.224 623.802 536.507 613.955 536.507 604.108 536.507 596.781 532.24 591.613 523.693 587.422 516.726 585.34 508.41 585.34 498.732 585.34 489.054 587.795 480.121 592.731 472.589 598.645 463.592 606.641 459.094 616.732 459.094 623.995 459.094 630.769 461.729 637.043 466.998 640.115 461.729 644.126 459.094 649.049 459.094 659.14 459.094 664.192 466.214 664.192 480.468 664.192 489.44 663.202 499.709 661.236 511.264 658.407 528.088 654.345 536.507 649.049 536.507 646.838 536.507 644.807 534.271 642.956 529.772 642.827 529.554 641.915 526.52 640.179 520.685ZM634.999 483.026C630.936 479.196 626.99 477.268 623.185 477.268 619.38 477.268 616.102 479.016 613.762 482.512 611.795 485.442 610.806 488.835 610.806 492.666 610.806 502.138 614.932 506.881 623.172 506.881 628.468 506.881 632.646 503.668 635.731 497.241 635.487 494.079 635.243 489.35 634.986 483.026L634.999 483.026Z" class="MsftOfcThm_Background1_Fill_v2" fill="#FFFFFF"/><path d="M720.87 478.694 716.627 478.861C714.905 496.611 712.385 511.945 709.056 524.875 707.089 532.407 704.197 536.173 700.379 536.173 696.934 536.173 694.157 532.355 692.075 524.708 689.118 513.809 686.534 498.475 684.323 478.694 675.582 478.694 671.211 475.725 671.211 469.762 671.211 463.361 675.209 460.16 683.217 460.16L683.217 451.909C683.217 436.858 689.118 429.326 700.932 429.326 712.141 429.326 717.746 436.974 717.746 452.243L717.746 460.327C721.641 460.327 724.739 460.61 727.053 461.176 731.308 462.191 733.442 465.057 733.442 469.774 733.442 475.391 729.251 478.373 720.883 478.707L720.87 478.694Z" class="MsftOfcThm_Background1_Fill_v2" fill="#FFFFFF"/><path d="M761.861 497.473C774.163 471.33 785.128 458.271 794.731 458.271 804.334 458.271 811.661 469.325 815.967 491.419 817.317 498.373 817.998 504.658 817.998 510.262 817.998 528.667 811.777 537.857 799.346 537.857 794.538 537.857 791.594 534.605 790.476 528.101 787.146 507.794 783.149 497.64 778.469 497.64 776.374 497.64 773.109 501.007 768.687 507.742L768.134 508.578C765.794 512.164 762.349 519.413 757.799 530.286 756.436 533.538 754.469 535.171 751.885 535.171 748.556 535.171 746.345 531.469 745.239 524.066 744.995 520.929 744.558 516.212 743.941 509.927 742.951 502.306 741.409 490.854 739.326 475.597 737.603 462.359 736.742 450.92 736.742 441.267 736.742 427.026 742.591 419.893 754.289 419.893 765.242 419.893 770.731 426.679 770.731 440.252 770.731 447.205 769.432 456.858 766.848 469.196L763.712 484.17C763.583 484.736 762.966 489.17 761.861 497.46L761.861 497.473Z" class="MsftOfcThm_Background1_Fill_v2" fill="#FFFFFF"/><path d="M0.694581 481.702C-1.7093 477.319 2.07006 468.9 12.3669 456.832 16.1462 452.076 20.2598 447.693 24.7334 442.938 24.7334 440.007 24.7334 437.09 24.3863 434.159 24.0392 410.021 24.0392 384.791 25.0676 358.815L25.0676 347.479C25.0676 342.723 25.0676 337.608 25.4147 332.479 25.7618 327.364 26.7902 320.051 27.8186 310.167 29.194 300.296 33.6547 299.563 40.8663 307.969 48.078 316.375 52.2044 321.863 52.5387 324.421 53.9141 329.909 53.9141 344.163 53.5671 373.789L52.5387 414.751C66.6148 401.95 81.0381 390.253 95.8085 380.01 142.511 347.466 191.629 331.374 233.524 347.466 269.582 361.733 258.938 392.451 247.6 410.368 242.445 419.147 234.552 416.216 230.091 407.078 225.631 397.939 215.321 386.963 190.935 384.405 164.493 381.115 131.52 394.276 98.2123 416.589L97.8652 416.949C104.048 423.17 112.289 435.971 122.932 455.713 152.46 513.5 196.771 562.496 235.58 570.542 259.272 576.39 271.986 569.449 278.85 562.136 286.062 554.822 294.302 554.45 296.706 564.693 302.889 585.168 303.236 618.085 265.108 619.91 235.233 621.002 207.068 607.108 180.973 584.076 142.511 551.892 105.758 489.35 86.5272 442.912 84.1233 437.424 82.7478 432.668 81.7194 428.645 72.451 435.599 63.5168 443.644 54.9297 452.05L54.9297 452.783 51.8445 455.713 51.8445 483.501C51.8445 502.524 45.3142 550.787 35.6987 550.787 31.5722 550.787 30.2096 536.16 27.8057 506.907 27.1244 497.395 26.4302 487.884 26.0831 478.013 17.496 484.234 11.6599 487.152 8.57467 486.792L0.668871 481.676 0.694581 481.702Z" class="MsftOfcThm_Background1_Fill_v2" fill="#FFFFFF"/></g></svg>