<svg viewBox="0 0 236.75 236.72" xmlns="http://www.w3.org/2000/svg" xmlns:xlink="http://www.w3.org/1999/xlink" id="Layer_2" overflow="hidden"><defs></defs><g id="Layer_1-2"><g><g><path d="M116.81 0C146.03 0.32 172.46 5.95 195.18 23.76 216.21 40.24 228.24 62.15 233.45 87.95 239.75 119.16 237.43 149.57 223.12 178.43 209.52 205.87 187.2 223.26 158.06 231.19 129.38 239 100.42 238.8 72.06 228.95 39.87 217.77 18.3 195.56 7.64 163.44-3.28 130.55-2.65 97.47 10.6 65.29 23.55 33.82 47.36 14.16 79.93 4.89 92.35 1.36 105.12 0.43 116.81 0ZM118.4 172.8C120.9 172.8 123.41 172.97 125.89 172.77 144.88 171.3 161.29 164.1 174.53 150.26 178.73 145.87 178.68 140.93 174.88 137.48 171.07 134.01 166.6 134.2 162.54 138.42 147.31 154.25 128.32 157.97 107.53 155.34 94.55 153.69 83.57 147.7 74.41 138.34 71.96 135.84 69.13 134.24 65.47 135.55 62.01 136.78 60.03 139.34 59.53 142.91 59.04 146.4 61.05 148.9 63.36 151.18 78.62 166.23 97.07 173.22 118.39 172.81ZM135.41 84.28C135.29 88.26 138.35 91.9 142.49 92.7 146.85 93.54 150.21 91.22 152.13 86.04 154.9 78.59 158.31 75.96 165.09 76.06 171.93 76.16 175.25 78.69 177.81 85.76 179.91 91.55 183.97 94.06 188.65 92.46 193.49 90.81 195.42 86.46 193.91 80.66 189.28 62.97 168.99 53.76 152.01 61.63 142.31 66.13 137.02 73.86 135.4 84.28ZM72.21 59.01C57.18 58.98 45.59 68.3 42.88 82.47 42.45 84.73 42.52 86.74 43.81 88.67 45.72 91.53 48.37 93.08 51.81 92.8 55.79 92.47 57.98 89.92 59.17 86.31 60.61 81.92 62.43 77.98 67.58 76.7 76.31 74.53 81.86 77.42 85.05 86.09 87.07 91.58 91.07 93.99 95.66 92.5 100.39 90.96 102.41 86.79 101.11 81.23 98.01 67.9 86.48 59.04 72.21 59.01Z" fill="#FEAF2E"/><path d="M118.4 172.8C97.08 173.21 78.63 166.23 63.37 151.17 61.06 148.89 59.05 146.4 59.54 142.9 60.04 139.34 62.01 136.78 65.48 135.54 69.14 134.24 71.97 135.83 74.42 138.33 83.57 147.69 94.56 153.68 107.54 155.33 128.33 157.97 147.32 154.24 162.55 138.41 166.61 134.19 171.07 134 174.89 137.47 178.68 140.92 178.74 145.86 174.54 150.25 161.3 164.09 144.89 171.29 125.9 172.76 123.42 172.95 120.91 172.79 118.41 172.79Z" fill="#432C32"/><path d="M135.41 84.27C137.03 73.85 142.32 66.12 152.02 61.62 169 53.74 189.29 62.96 193.92 80.65 195.44 86.45 193.5 90.8 188.66 92.45 183.98 94.05 179.92 91.54 177.82 85.75 175.26 78.68 171.94 76.15 165.1 76.05 158.32 75.95 154.9 78.58 152.14 86.03 150.22 91.21 146.86 93.53 142.5 92.69 138.36 91.89 135.3 88.25 135.42 84.27Z" fill="#432C32"/><path d="M72.21 59.01C86.48 59.04 98.01 67.9 101.11 81.23 102.4 86.79 100.39 90.96 95.66 92.5 91.06 94 87.06 91.58 85.05 86.09 81.86 77.42 76.31 74.52 67.58 76.7 62.43 77.98 60.61 81.92 59.17 86.31 57.99 89.92 55.8 92.47 51.81 92.8 48.36 93.08 45.71 91.53 43.81 88.67 42.53 86.75 42.45 84.74 42.88 82.47 45.59 68.3 57.18 58.98 72.21 59.01Z" fill="#432C32"/></g><ellipse cx="50.61" cy="116.58" rx="26.23" ry="16.17" fill="#FF6723"/><ellipse cx="186.84" cy="116.58" rx="26.23" ry="16.17" fill="#FF6723"/></g></g></svg>