<svg width="818" height="318" viewBox="0 0 818 318" xmlns="http://www.w3.org/2000/svg" xmlns:xlink="http://www.w3.org/1999/xlink" fill="none" overflow="hidden"><style>
.MsftOfcThm_Background1_Fill_v2 {
 fill:#FFFFFF; 
}
</style>
<path d="M206.787 118.391C217.367 118.391 222.663 123.943 222.663 135.048 222.663 146.153 217.302 151.037 206.594 151.037 195.886 151.037 189.973 145.6 189.973 134.714 189.973 129.997 191.477 126.102 194.498 123.018 197.519 119.933 201.606 118.391 206.774 118.391L206.787 118.391ZM206.414 156.757C215.773 156.757 220.452 164.198 220.452 179.082 220.452 193.966 218.356 209.197 214.179 224.08 212.327 230.687 209.615 233.99 206.054 233.99 202.982 233.99 200.398 231.085 198.303 225.263 193.623 212.397 191.284 197.5 191.284 180.599 191.284 164.7 196.336 156.757 206.427 156.757L206.414 156.757Z" class="MsftOfcThm_Background1_Fill_v2" fill="#FFFFFF"/><path d="M285.821 216.331C279.908 228.104 271.719 234.004 261.255 234.004 250.791 234.004 243.04 229.569 237.255 220.714 232.331 213.31 229.863 204.673 229.863 194.802 229.863 184.931 232.074 176.628 236.509 169.559 241.921 160.922 249.621 156.603 259.597 156.603 267.965 156.603 274.611 160.138 279.535 167.207 278.172 154.418 277.504 144.946 277.504 138.763 277.504 125.191 282.916 118.404 293.752 118.404 304.589 118.404 310.374 126.245 310.374 141.925 310.374 153.351 309.384 166.68 307.417 181.911 306.183 190.766 304.345 204.031 301.877 221.729 300.771 229.904 298.303 233.991 294.485 233.991 291.413 233.991 289.125 231.6 287.659 226.819 287.531 226.266 287.171 224.428 286.554 221.318L285.821 216.318 285.821 216.331ZM283.044 193.954C281.939 187.784 280.885 180.433 279.908 171.911 279.291 174.263 277.941 175.446 275.845 175.446 274.856 175.446 273.442 175.06 271.603 174.263 269.135 173.479 267.233 173.081 265.883 173.081 262.065 173.081 259.057 174.456 256.833 177.206 254.622 179.957 253.504 183.119 253.504 186.718 253.504 191.203 254.738 194.905 257.193 197.823 259.905 201.074 263.595 202.707 268.274 202.707 273.57 202.707 278.494 199.789 283.044 193.954Z" class="MsftOfcThm_Background1_Fill_v2" fill="#FFFFFF"/><path d="M376.114 216.331C370.201 228.104 362.012 234.004 351.548 234.004 341.084 234.004 333.333 229.569 327.548 220.714 322.624 213.31 320.156 204.673 320.156 194.802 320.156 184.931 322.367 176.628 326.802 169.559 332.214 160.922 339.914 156.603 349.89 156.603 358.258 156.603 364.904 160.138 369.828 167.207 368.465 154.418 367.797 144.946 367.797 138.763 367.797 125.191 373.209 118.404 384.045 118.404 394.882 118.404 400.667 126.245 400.667 141.925 400.667 153.351 399.677 166.68 397.71 181.911 396.476 190.766 394.638 204.031 392.17 221.729 391.064 229.904 388.596 233.991 384.778 233.991 381.706 233.991 379.418 231.6 377.952 226.819 377.824 226.266 377.464 224.428 376.847 221.318L376.114 216.318 376.114 216.331ZM373.35 193.954C372.245 187.784 371.19 180.433 370.213 171.911 369.596 174.263 368.247 175.446 366.151 175.446 365.161 175.446 363.747 175.06 361.909 174.263 359.441 173.479 357.538 173.081 356.189 173.081 352.371 173.081 349.363 174.456 347.139 177.206 344.928 179.957 343.809 183.119 343.809 186.718 343.809 191.203 345.043 194.905 347.499 197.823 350.211 201.074 353.901 202.707 358.58 202.707 363.876 202.707 368.799 199.789 373.35 193.954Z" class="MsftOfcThm_Background1_Fill_v2" fill="#FFFFFF"/><path d="M426.904 118.391C437.484 118.391 442.78 123.943 442.78 135.048 442.78 146.153 437.419 151.037 426.711 151.037 416.003 151.037 410.09 145.6 410.09 134.714 410.09 129.997 411.594 126.102 414.615 123.018 417.636 119.933 421.724 118.391 426.891 118.391L426.904 118.391ZM426.531 156.757C435.89 156.757 440.569 164.198 440.569 179.082 440.569 193.966 438.474 209.197 434.296 224.08 432.445 230.687 429.732 233.99 426.171 233.99 423.099 233.99 420.515 231.085 418.42 225.263 413.741 212.397 411.401 197.5 411.401 180.599 411.401 164.7 416.453 156.757 426.544 156.757L426.531 156.757Z" class="MsftOfcThm_Background1_Fill_v2" fill="#FFFFFF"/><path d="M498.366 206.407 492.825 189.75C491.103 184.48 489.072 179.648 486.732 175.278 485.627 173.26 484.573 172.244 483.596 172.244 480.767 172.244 478.672 177.128 477.322 186.884 476.577 192.938 476.217 198.837 476.217 204.557 476.217 207.024 476.281 209.556 476.397 212.127 476.641 217.397 476.77 220.713 476.77 222.049 476.77 230.018 473.016 234.003 465.509 234.003 460.585 234.003 457.076 232.036 454.98 228.116 452.152 222.962 450.738 214.094 450.738 201.523 450.738 191.537 452.332 180.239 455.546 167.617 458.747 154.996 462.745 144.148 467.553 135.061 473.466 123.84 479.919 118.236 486.938 118.236 496.785 118.236 505.346 128.724 512.609 149.7 519.628 128.724 528.177 118.236 538.281 118.236 546.161 118.236 553.359 124.907 559.89 138.261 563.836 146.333 567.089 155.96 569.672 167.116 572.256 178.285 573.555 188.285 573.555 197.153 573.555 206.022 572.012 213.194 568.94 220.032 564.749 229.35 558.784 234.003 551.033 234.003 543.281 234.003 539.887 228.232 539.772 216.664 539.528 203.207 537.921 191.318 534.964 180.997 533.37 175.612 531.763 172.926 530.169 172.926 528.935 172.926 527.894 174.057 527.033 176.306L516.877 204.685C514.666 210.996 511.401 214.145 507.094 214.145 503.032 214.145 500.14 211.562 498.417 206.407L498.366 206.407Z" class="MsftOfcThm_Background1_Fill_v2" fill="#FFFFFF"/><path d="M640.183 218.515C632.547 229.054 623.806 234.337 613.959 234.337 604.112 234.337 596.785 230.07 591.617 221.523 587.426 214.556 585.344 206.241 585.344 196.562 585.344 186.884 587.799 177.951 592.735 170.419 598.649 161.422 606.644 156.924 616.736 156.924 623.999 156.924 630.773 159.559 637.046 164.828 640.119 159.559 644.13 156.924 649.053 156.924 659.144 156.924 664.196 164.044 664.196 178.298 664.196 187.27 663.206 197.539 661.239 209.094 658.411 225.918 654.349 234.337 649.053 234.337 646.842 234.337 644.811 232.101 642.96 227.602 642.831 227.384 641.918 224.35 640.183 218.515ZM635.002 180.856C630.94 177.026 626.994 175.098 623.189 175.098 619.384 175.098 616.106 176.846 613.766 180.342 611.799 183.272 610.809 186.666 610.809 190.496 610.809 199.968 614.936 204.711 623.176 204.711 628.472 204.711 632.65 201.498 635.735 195.071 635.491 191.91 635.247 187.18 634.99 180.856L635.002 180.856Z" class="MsftOfcThm_Background1_Fill_v2" fill="#FFFFFF"/><path d="M720.874 176.524 716.631 176.691C714.909 194.441 712.389 209.775 709.06 222.705 707.093 230.237 704.201 234.003 700.383 234.003 696.938 234.003 694.161 230.185 692.078 222.538 689.122 211.639 686.538 196.305 684.327 176.524 675.586 176.524 671.215 173.555 671.215 167.592 671.215 161.191 675.213 157.99 683.221 157.99L683.221 149.739C683.221 134.688 689.122 127.156 700.936 127.156 712.145 127.156 717.75 134.804 717.75 150.073L717.75 158.158C721.645 158.158 724.743 158.44 727.057 159.006 731.312 160.021 733.446 162.887 733.446 167.604 733.446 173.221 729.255 176.203 720.886 176.537L720.874 176.524Z" class="MsftOfcThm_Background1_Fill_v2" fill="#FFFFFF"/><path d="M761.865 195.303C774.167 169.16 785.132 156.102 794.735 156.102 804.337 156.102 811.665 167.155 815.971 189.249 817.321 196.203 818.002 202.488 818.002 208.092 818.002 226.497 811.781 235.687 799.35 235.687 794.542 235.687 791.598 232.435 790.48 225.932 787.15 205.624 783.153 195.47 778.473 195.47 776.378 195.47 773.113 198.838 768.691 205.572L768.138 206.408C765.798 209.994 762.353 217.243 757.803 228.117 756.44 231.368 754.473 233.001 751.889 233.001 748.56 233.001 746.349 229.299 745.243 221.896 744.999 218.76 744.562 214.043 743.945 207.757 742.955 200.136 741.412 188.684 739.33 173.427 737.607 160.189 736.746 148.75 736.746 139.097 736.746 124.856 742.595 117.723 754.293 117.723 765.246 117.723 770.735 124.509 770.735 138.082 770.735 145.035 769.436 154.688 766.852 167.027L763.716 182C763.587 182.566 762.97 187 761.865 195.29L761.865 195.303Z" class="MsftOfcThm_Background1_Fill_v2" fill="#FFFFFF"/><path d="M0.698487 179.532C-1.70539 175.149 2.07397 166.731 12.3708 154.662 16.1502 149.906 20.2637 145.523 24.7373 140.768 24.7373 137.837 24.7373 134.92 24.3902 131.989 24.0431 107.851 24.0431 82.621 25.0715 56.6452L25.0715 45.3089C25.0715 40.5533 25.0715 35.4378 25.4186 30.3095 25.7657 25.194 26.7941 17.8807 27.8225 7.99681 29.1979-1.87425 33.6586-2.60687 40.8703 5.79895 48.0819 14.2048 52.2083 19.693 52.5426 22.2507 53.918 27.7389 53.918 41.9928 53.571 71.6189L52.5426 112.581C66.6187 99.7796 81.042 88.0835 95.8124 77.8397 142.514 45.296 191.633 29.2041 233.528 45.296 269.586 59.5628 258.942 90.2813 247.604 108.198 242.449 116.977 234.556 114.046 230.095 104.908 225.635 95.7695 215.325 84.7931 190.939 82.2354 164.496 78.945 131.523 92.1064 98.2162 114.419L97.8692 114.779C104.052 121 112.292 133.801 122.936 153.543 152.464 211.33 196.775 260.326 235.584 268.372 259.276 274.22 271.99 267.279 278.854 259.966 286.066 252.652 294.306 252.28 296.71 262.524 302.893 282.998 303.24 315.915 265.112 317.74 235.237 318.832 207.072 304.938 180.977 281.906 142.514 249.722 105.762 187.18 86.5311 140.742 84.1272 135.254 82.7517 130.498 81.7233 126.475 72.4549 133.429 63.5207 141.475 54.9336 149.88L54.9336 150.613 51.8484 153.543 51.8484 181.332C51.8484 200.354 45.3181 248.617 35.7026 248.617 31.5761 248.617 30.2135 233.99 27.8096 204.737 27.1283 195.226 26.4341 185.714 26.087 175.843 17.4999 182.064 11.6638 184.982 8.57858 184.622L0.672777 179.506 0.698487 179.532Z" class="MsftOfcThm_Background1_Fill_v2" fill="#FFFFFF"/></svg>